<?xml version="1.0" encoding="utf-8"?>
<!-- Generator: Adobe Illustrator 24.0.0, SVG Export Plug-In . SVG Version: 6.00 Build 0)  -->
<svg version="1.1" id="Layer_1" xmlns="http://www.w3.org/2000/svg" xmlns:xlink="http://www.w3.org/1999/xlink" x="0px" y="0px"
	 viewBox="0 0 89.5 50.9" style="enable-background:new 0 0 89.5 50.9;" xml:space="preserve">
<style type="text/css">
	.st0{display:none;fill:#FFFFFF;}
	.st1{display:none;fill:#F0A78F;}
	.st2{fill:#DF2126;}
</style>
<g>
	<path class="st0" d="M1.9,30.3c0-9.8,0.1-19.6-0.1-29.5c0-2.1,0.4-2.5,2.5-2.5c27.3,0.1,54.6,0.1,81.9,0c2.1,0,2.6,0.4,2.5,2.5
		c-0.1,9.7-0.1,19.3-0.1,29c0,1.3,0.5,3-2,2.4c-0.3-0.3-0.7-0.6-1-0.9C76.4,18.5,64.4,8.9,49.5,2.6c-3.3-1.4-6.1-1.5-9.4-0.2
		C26.9,7.7,16.2,16.3,7.1,26.9c-1.2,1.3-2.1,2.9-3.8,3.7C2.8,30.7,2.3,30.6,1.9,30.3z"/>
	<path class="st0" d="M75,32.2c-20.4,0-40.8,0-61.2,0c-0.2-0.3-0.3-0.5-0.3-0.9c0-0.3,0-0.5,0.1-0.5c7.3-9.2,16.6-15.7,27.2-20.8
		c2-1,4-1.4,6.1-0.5C58,14.5,68,20.9,75.3,30.9C75.4,31.4,75.3,31.8,75,32.2z"/>
	<path class="st1" d="M13.9,31.5c0.1,0.3,0,0.5-0.1,0.7c-3.5,0-6.9-0.2-10.4,0.1c-2,0.1-1.4-1-1.5-2c0.3,0,0.6-0.1,0.9,0
		C6.6,30,10.5,28.7,13.9,31.5z"/>
	<path class="st1" d="M75,32.2c0-0.3-0.1-0.6-0.1-0.9c3.9-2.5,7.8-1.9,11.8-0.3c0.1,0.4,0.1,0.7,0.2,1.1
		C82.9,32.2,78.9,32.2,75,32.2z"/>
	<path class="st2" d="M87.7,32.4c-4,0-7.9,0-11.8,0C68.3,24,58.7,16.1,48.3,11.3c-2.6-1.2-4.7-1.3-7.3-0.1
		c-10.6,4.8-20.3,12.9-28.2,21.1c-4,0-7.7,0-11.7,0C10.9,19.1,25.3,7.1,40.9,0.8c2.6-1.1,4.8-1.1,7.4,0
		C64.1,7.3,78.2,18.3,87.7,32.4z"/>
</g>
<g>
	<path d="M1,38l4.9,11.6L10.7,38h1L6.3,50.8H5.4L0,38H1z"/>
	<path d="M13.6,50.8V38h0.9v12.8H13.6z"/>
	<path d="M17.5,38l4.9,11.6L27.2,38h1l-5.4,12.8h-0.8L16.5,38H17.5z"/>
	<path d="M33,38h0.8l5.4,12.8h-1l-1.8-4.2h-6.1l-1.8,4.2h-1L33,38z M36.2,45.8l-2.8-6.7l-2.8,6.7H36.2z"/>
	<path d="M42.6,41v9.8H41V38h1.3l7.9,10V38h1.6v12.8h-1.4L42.6,41z"/>
	<path d="M60.1,50.9c-0.9,0-1.7-0.2-2.5-0.5c-0.7-0.4-1.4-0.9-1.9-1.5c-0.5-0.6-0.9-1.3-1.2-2.1c-0.3-0.8-0.4-1.6-0.4-2.4
		c0-0.9,0.2-1.7,0.5-2.4c0.3-0.8,0.7-1.5,1.3-2.1c0.5-0.6,1.2-1.1,1.9-1.4s1.5-0.5,2.4-0.5c0.9,0,1.7,0.2,2.4,0.6
		c0.7,0.4,1.4,0.9,1.9,1.5c0.5,0.6,0.9,1.3,1.2,2.1c0.3,0.8,0.4,1.6,0.4,2.4c0,0.9-0.2,1.7-0.5,2.4s-0.7,1.5-1.3,2.1
		c-0.5,0.6-1.2,1.1-1.9,1.4C61.7,50.7,60.9,50.9,60.1,50.9z M55.7,44.4c0,0.6,0.1,1.3,0.3,1.9c0.2,0.6,0.5,1.1,0.9,1.6
		c0.4,0.5,0.8,0.8,1.4,1.1c0.5,0.3,1.1,0.4,1.8,0.4c0.7,0,1.3-0.1,1.8-0.4c0.5-0.3,1-0.7,1.4-1.2c0.4-0.5,0.7-1,0.9-1.6
		c0.2-0.6,0.3-1.2,0.3-1.8c0-0.6-0.1-1.3-0.3-1.9c-0.2-0.6-0.5-1.1-0.9-1.6c-0.4-0.5-0.9-0.8-1.4-1.1c-0.5-0.3-1.1-0.4-1.8-0.4
		c-0.7,0-1.3,0.1-1.8,0.4c-0.5,0.3-1,0.7-1.4,1.1s-0.7,1-0.9,1.6C55.8,43.1,55.7,43.8,55.7,44.4z"/>
	<path d="M68.2,38l4.2,10.7L76.7,38h1.7l-5.2,12.8h-1.4L66.5,38H68.2z"/>
	<path d="M82.9,38h1.4l5.2,12.8h-1.7L86.3,47h-5.4l-1.5,3.7h-1.7L82.9,38z M85.9,45.8l-2.3-5.9l-2.4,5.9H85.9z"/>
</g>
</svg>
